<svg id="Layer_2" data-name="Layer 2" xmlns="http://www.w3.org/2000/svg" viewBox="0 0 288 288"><defs><style>.cls-1{fill:#f8981d;}.cls-2{fill:#231f20;}</style></defs><title>favicon-2</title><rect class="cls-1" x="114.97" y="21.49" width="22.86" height="96.25" rx="4.48" transform="translate(56.79 196.01) rotate(-90)"/><rect class="cls-1" x="140.89" y="211.12" width="22.86" height="58.49" rx="4.55" transform="translate(-88.05 392.68) rotate(-90)"/><path class="cls-1" d="M225.86,58.18H205a2.12,2.12,0,0,1-2.11-2.11V47.23a3.15,3.15,0,0,1,1.24-2.5,21,21,0,1,0-25.31,0A3.06,3.06,0,0,1,180,47.21V74.58A6.46,6.46,0,0,0,186.46,81h21.17a2.17,2.17,0,0,1,2.17,2.17v78.38a4.72,4.72,0,0,0,4.72,4.72h13.42a4.72,4.72,0,0,0,4.72-4.72V65A6.79,6.79,0,0,0,225.86,58.18Z"/><path class="cls-1" d="M198.84,86.11H44.46A3.11,3.11,0,0,1,42,84.89a21,21,0,1,0,0,25.32A3.16,3.16,0,0,1,44.49,109H137a2.2,2.2,0,0,1,2.2,2.2v50.46a3.91,3.91,0,0,0,3.91,3.91h15a3.91,3.91,0,0,0,3.91-3.91V110.87A1.9,1.9,0,0,1,164,109h34.81a4,4,0,0,0,4-4V90A3.91,3.91,0,0,0,198.84,86.11Z"/><path class="cls-1" d="M260.1,162.9a21,21,0,0,0-17.7,8.4,2.87,2.87,0,0,1-2.31,1.15H77.75a2,2,0,0,1-2-2V140.09a2.2,2.2,0,0,1,2.2-2.2h49.68a4.54,4.54,0,0,0,4.54-4.54V119.57a4.54,4.54,0,0,0-4.54-4.54H57.41a4.54,4.54,0,0,0-4.54,4.54v71.2a4.54,4.54,0,0,0,4.54,4.54H240.17a2.73,2.73,0,0,1,2.18,1.07A21,21,0,1,0,260.1,162.9Z"/><path class="cls-1" d="M228.11,201.2H89.83a4.55,4.55,0,0,0-4.55,4.54v29.93a3,3,0,0,1-1.21,2.44,21,21,0,1,0,25.19-.07,2.85,2.85,0,0,1-1.12-2.27v-9.51a2.2,2.2,0,0,1,2.2-2.2H228.11a4.55,4.55,0,0,0,4.55-4.55V205.74A4.55,4.55,0,0,0,228.11,201.2Z"/><circle class="cls-2" cx="191.37" cy="27.61" r="11.33"/><circle class="cls-2" cx="259.43" cy="184.05" r="11.33"/><circle class="cls-2" cx="96.9" cy="255.15" r="11.33"/><circle class="cls-2" cx="25.29" cy="97.32" r="11.33"/></svg>