<?xml version="1.0" standalone="no"?>
<!DOCTYPE svg PUBLIC "-//W3C//DTD SVG 20010904//EN"
 "http://www.w3.org/TR/2001/REC-SVG-20010904/DTD/svg10.dtd">
<svg version="1.0" xmlns="http://www.w3.org/2000/svg"
 width="554.000000pt" height="554.000000pt" viewBox="0 0 554.000000 554.000000"
 preserveAspectRatio="xMidYMid meet">
<metadata>
Created by potrace 1.11, written by Peter Selinger 2001-2013
</metadata>
<g transform="translate(0.000000,554.000000) scale(0.100000,-0.100000)"
fill="#000000" stroke="none">
<path d="M423 5520 c-223 -65 -380 -275 -372 -499 4 -135 57 -260 147 -347 69
-67 99 -86 197 -124 85 -33 243 -33 330 -1 33 12 69 24 81 27 17 3 153 -50
309 -120 17 -8 127 -55 245 -106 118 -51 234 -101 257 -111 44 -20 94 -41 103
-44 3 -1 23 -9 45 -19 22 -10 70 -31 106 -46 36 -15 81 -34 100 -43 19 -8 50
-21 69 -30 19 -8 55 -24 80 -35 25 -11 173 -75 330 -142 157 -67 303 -130 325
-140 75 -34 120 -53 125 -55 15 -5 369 -158 465 -200 67 -30 100 -33 154 -15
28 9 60 25 71 35 19 17 52 81 95 180 9 22 21 48 26 57 5 10 9 24 9 31 0 7 5
18 12 25 6 6 13 17 14 24 2 11 183 432 229 533 99 218 113 281 81 349 -16 34
-81 96 -100 96 -5 0 -33 12 -63 26 -205 96 -299 75 -367 -86 -15 -36 -33 -78
-41 -95 -7 -16 -23 -55 -35 -85 -12 -30 -26 -62 -31 -70 -5 -8 -12 -22 -15
-30 -20 -49 -90 -213 -110 -257 -14 -29 -31 -53 -38 -53 -8 0 -31 9 -53 20
-21 10 -101 46 -178 79 -274 116 -470 202 -498 217 -15 8 -27 13 -27 10 0 -4
-25 6 -165 69 -16 7 -95 41 -175 75 -80 34 -169 73 -198 86 -29 13 -54 24 -57
24 -2 0 -38 16 -79 35 -42 19 -79 35 -82 35 -3 0 -20 6 -37 14 -18 8 -63 28
-100 45 -38 17 -70 31 -72 31 -3 0 -34 14 -70 30 -36 17 -68 30 -70 30 -3 0
-27 10 -53 21 -99 45 -149 67 -205 90 -62 25 -78 44 -92 109 -29 135 -166 283
-312 337 -90 33 -221 38 -310 13z"/>
<path d="M4965 5482 c-22 -1 -65 -8 -95 -14 -30 -7 -57 -12 -60 -13 -3 0 -32
-14 -65 -30 -115 -57 -220 -187 -255 -315 -31 -110 -16 -263 34 -360 27 -53
27 -58 -13 -153 -35 -84 -146 -348 -166 -392 -7 -16 -32 -75 -55 -130 -23 -55
-48 -113 -56 -130 -16 -38 -198 -464 -294 -690 -39 -93 -78 -183 -85 -200 -8
-16 -41 -95 -75 -175 -54 -128 -73 -171 -110 -255 -63 -146 -212 -505 -221
-534 -7 -24 -9 -58 -4 -88 12 -83 54 -112 316 -222 123 -52 247 -105 276 -118
28 -13 54 -23 57 -23 4 0 29 -11 58 -25 28 -14 55 -25 60 -25 4 0 31 -11 60
-24 116 -52 295 -124 321 -128 66 -12 144 30 180 97 44 82 90 205 94 256 7 67
-18 121 -70 155 -18 11 -135 65 -262 118 -400 171 -400 171 -397 192 3 25 6
31 27 79 24 55 89 207 186 437 45 106 89 211 99 233 10 22 37 85 60 140 23 55
50 118 60 140 9 22 68 159 130 305 61 146 118 279 125 295 22 49 98 229 170
400 37 88 74 168 83 178 8 9 34 22 56 28 146 38 294 192 337 351 13 47 16 205
5 253 -15 61 -76 172 -123 221 -106 112 -255 176 -388 166z"/>
<path d="M2093 5420 c-12 -5 -29 -22 -37 -38 -41 -79 -166 -385 -166 -405 0
-36 37 -69 115 -101 39 -16 97 -42 130 -56 33 -15 101 -44 150 -65 50 -20 109
-46 133 -56 23 -11 122 -54 220 -95 97 -42 195 -84 217 -94 22 -10 81 -35 130
-55 50 -21 96 -42 103 -47 6 -6 12 -7 12 -4 0 4 9 2 20 -4 14 -8 28 -7 53 3
30 13 39 29 120 216 48 111 87 213 87 226 0 37 -38 71 -120 105 -41 18 -88 38
-104 46 -16 8 -35 14 -43 14 -7 0 -13 4 -13 10 0 5 -3 9 -7 8 -5 -1 -19 3 -33
9 -112 47 -161 68 -200 85 -25 12 -81 36 -125 55 -117 51 -129 56 -135 58 -3
1 -21 8 -40 17 -225 99 -395 169 -418 173 -15 2 -37 0 -49 -5z"/>
<path d="M795 4055 c-34 -12 -95 -63 -95 -80 0 -3 -9 -24 -19 -48 -76 -166
-91 -222 -71 -281 22 -68 56 -92 223 -160 271 -111 323 -133 351 -148 10 -5
26 -11 35 -13 19 -3 131 -56 131 -61 0 -3 -38 -97 -84 -206 -9 -21 -17 -41
-18 -45 -1 -5 -14 -35 -28 -68 -25 -56 -41 -93 -45 -105 -1 -3 -8 -18 -15 -35
-7 -16 -14 -34 -16 -40 -3 -11 -119 -289 -134 -320 -5 -11 -21 -49 -35 -85
-14 -36 -30 -74 -35 -85 -5 -11 -59 -141 -120 -290 -173 -420 -201 -488 -216
-522 -35 -81 -46 -107 -109 -263 -37 -91 -71 -170 -76 -176 -5 -6 -44 -28 -86
-49 -99 -49 -186 -134 -230 -225 -95 -196 -56 -434 95 -586 163 -164 390 -196
607 -86 62 31 162 132 195 198 14 27 27 51 30 54 3 3 6 14 8 25 2 11 6 27 9
35 13 33 15 48 15 140 0 107 -20 179 -73 261 -33 52 -33 58 2 134 10 22 34 81
54 130 21 50 43 104 50 120 8 17 39 91 69 165 30 74 63 153 72 175 10 22 18
42 19 45 1 3 7 17 13 33 29 67 35 83 37 92 2 6 12 30 23 55 47 104 92 214 92
227 0 7 5 13 11 13 5 0 8 4 5 8 -3 5 1 20 9 35 7 14 61 142 120 284 59 142
118 285 132 318 14 33 29 69 33 80 5 11 20 46 34 79 14 32 26 62 26 67 0 5 11
32 24 61 14 29 37 82 51 118 15 36 33 79 40 95 63 142 117 280 123 316 21 114
-30 173 -215 249 -70 29 -202 83 -293 122 -91 38 -172 71 -181 73 -9 2 -25 8
-35 14 -56 33 -411 171 -438 171 -17 -1 -49 -7 -71 -15z"/>
<path d="M2326 3637 c-8 -12 -27 -53 -43 -91 l-27 -68 29 -24 c17 -13 35 -24
41 -24 6 0 53 -18 105 -40 52 -22 103 -44 114 -49 125 -54 170 -71 181 -71 8
0 14 -5 14 -10 0 -6 3 -9 8 -8 4 1 21 -4 37 -11 203 -82 303 -126 300 -131 -3
-5 -90 -209 -282 -665 -114 -270 -133 -321 -131 -338 3 -19 27 -35 93 -62 22
-9 55 -23 73 -31 18 -8 37 -14 42 -14 18 0 39 32 70 107 17 43 38 92 45 108
14 31 37 86 40 95 1 3 7 16 13 30 6 14 68 160 137 324 111 263 141 333 150
344 1 1 24 -7 51 -19 118 -51 216 -89 233 -89 28 0 95 158 78 183 -12 17 -159
87 -184 87 -7 0 -13 4 -13 10 0 5 -3 9 -7 8 -5 0 -17 3 -28 7 -48 20 -332 138
-355 148 -14 6 -27 11 -30 12 -3 0 -27 11 -54 23 -27 12 -50 22 -53 22 -4 0
-165 67 -228 95 -86 38 -354 149 -378 156 -22 6 -30 4 -41 -14z"/>
<path d="M4900 3597 c-13 -13 -47 -82 -77 -153 -30 -71 -62 -145 -70 -164 -9
-19 -17 -37 -17 -40 -1 -3 -18 -43 -38 -90 -202 -474 -317 -748 -319 -765 -3
-24 9 -65 25 -80 6 -6 27 -17 46 -25 19 -7 106 -44 193 -82 170 -73 203 -78
238 -37 9 11 40 75 69 142 28 67 60 140 70 162 31 70 145 340 145 345 0 3 8
21 17 40 21 45 168 391 168 396 0 2 12 28 26 59 20 41 25 65 21 90 -5 32 -26
65 -42 65 -3 0 -26 9 -51 20 -41 19 -92 41 -104 45 -3 1 -27 12 -55 24 -87 40
-175 71 -199 71 -13 0 -34 -10 -46 -23z"/>
<path d="M618 3362 c-29 -15 -40 -33 -85 -142 -29 -69 -60 -143 -69 -165 -10
-22 -18 -44 -20 -50 -2 -8 -189 -457 -229 -550 -4 -11 -9 -22 -10 -25 -1 -3
-6 -16 -12 -30 -6 -14 -27 -65 -47 -115 -21 -49 -41 -99 -46 -110 -31 -71 -15
-115 48 -142 20 -8 48 -20 62 -26 14 -6 27 -11 30 -12 3 -1 23 -9 45 -19 155
-68 238 -97 265 -91 26 6 70 50 70 70 0 6 73 183 115 280 8 17 29 68 48 115
97 240 200 486 208 496 5 6 10 19 12 30 2 10 11 37 21 59 83 188 90 238 42
270 -21 14 -292 129 -378 160 -31 12 -40 11 -70 -3z"/>
<path d="M2315 3319 c-101 -18 -146 -60 -199 -185 -21 -49 -43 -102 -51 -119
-7 -16 -50 -118 -96 -225 -73 -172 -83 -202 -83 -256 0 -73 30 -132 96 -189
43 -37 172 -104 231 -120 4 -2 9 -4 12 -5 15 -8 85 -20 134 -24 57 -5 137 25
178 67 35 34 105 181 97 202 -5 13 -143 75 -167 75 -8 0 -26 -24 -41 -52 -45
-89 -50 -93 -114 -93 -82 0 -174 47 -197 101 -11 26 -6 72 11 112 8 17 20 47
28 65 8 17 24 55 35 82 12 28 27 61 33 75 96 229 112 262 137 278 68 45 229
-17 260 -101 9 -22 7 -40 -8 -81 -10 -30 -16 -58 -12 -64 9 -14 140 -72 163
-72 20 0 51 59 72 140 38 141 -65 263 -299 355 -69 27 -170 43 -220 34z"/>
<path d="M1957 2045 c-81 -28 -73 -13 -397 -795 -40 -96 -82 -198 -95 -226
-54 -119 -54 -188 1 -253 27 -31 59 -49 156 -91 146 -62 192 -67 259 -28 53
32 54 33 169 308 29 69 74 177 101 239 27 63 49 121 49 128 0 7 5 13 10 13 6
0 10 9 10 19 0 19 2 19 58 -5 31 -14 66 -28 77 -33 11 -4 41 -18 68 -30 26
-11 54 -21 62 -21 8 0 15 -4 15 -10 0 -5 3 -9 8 -8 4 0 16 -2 27 -7 26 -10
321 -134 360 -150 17 -7 161 -68 320 -135 160 -67 304 -128 320 -135 73 -31
161 -67 300 -125 83 -34 168 -70 190 -80 22 -10 81 -34 130 -54 50 -21 109
-46 132 -57 24 -10 45 -19 48 -19 12 0 115 -51 116 -58 10 -98 70 -212 154
-294 49 -48 164 -112 225 -125 68 -15 216 -8 275 12 224 78 353 258 353 492 0
139 -43 246 -138 342 -61 62 -167 125 -241 144 -104 27 -246 14 -337 -31 -42
-21 -54 -20 -137 15 -33 14 -73 31 -90 38 -16 7 -187 79 -380 160 -192 81
-363 153 -380 160 -64 28 -420 177 -465 195 -26 10 -67 28 -91 38 -116 53
-315 135 -326 135 -7 0 -13 4 -13 9 0 4 -8 8 -18 8 -10 0 -22 4 -27 9 -6 4
-41 20 -80 35 -38 15 -85 34 -102 42 -77 33 -101 43 -163 68 -36 15 -74 31
-85 36 -115 54 -318 132 -350 135 -22 2 -57 -2 -78 -10z"/>
<path d="M2325 1116 c-20 -8 -38 -29 -52 -57 -33 -70 -113 -263 -113 -274 0
-6 -5 -16 -12 -23 -12 -12 -16 -25 -25 -78 -8 -49 26 -76 177 -139 74 -32 146
-62 160 -68 14 -6 27 -11 30 -12 3 -1 16 -6 30 -12 14 -6 167 -70 340 -143
357 -150 358 -150 423 -179 27 -12 66 -24 88 -26 34 -3 42 0 63 28 13 18 43
77 65 132 23 55 46 109 51 120 34 75 60 148 60 167 -1 43 -34 67 -180 128 -80
34 -161 68 -180 77 -19 8 -44 18 -55 23 -11 4 -31 12 -45 18 -14 6 -72 31
-130 55 -58 25 -161 68 -230 97 -69 29 -143 60 -165 70 -35 16 -232 96 -260
106 -5 2 -24 -3 -40 -10z"/>
</g>
</svg>
