<?xml version="1.0" standalone="no"?>
<!DOCTYPE svg PUBLIC "-//W3C//DTD SVG 20010904//EN"
 "http://www.w3.org/TR/2001/REC-SVG-20010904/DTD/svg10.dtd">
<svg version="1.0" xmlns="http://www.w3.org/2000/svg"
 width="700.000000pt" height="700.000000pt" viewBox="0 0 700.000000 700.000000"
 preserveAspectRatio="xMidYMid meet">
<metadata>
Created by potrace 1.11, written by Peter Selinger 2001-2013
</metadata>
<g transform="translate(0.000000,700.000000) scale(0.100000,-0.100000)"
fill="#000000" stroke="none">
<path d="M4495 6804 c-212 -71 -347 -258 -348 -479 0 -151 44 -258 156 -369
l70 -71 2 -365 c1 -332 3 -368 19 -403 20 -40 91 -90 123 -87 10 1 138 2 285
1 228 -1 269 -3 282 -17 14 -14 16 -117 16 -990 0 -1072 -3 -1016 61 -1049 25
-14 63 -16 229 -13 193 3 199 4 224 27 14 13 29 35 33 50 5 14 9 566 8 1226
-1 1349 6 1238 -77 1292 l-41 28 -289 1 c-273 0 -289 1 -303 20 -12 15 -15 45
-13 149 l3 130 66 65 c36 36 79 90 96 120 83 147 85 344 6 494 -37 68 -145
175 -213 208 -125 62 -271 74 -395 32z"/>
<path d="M1989 5582 c-80 -21 -88 -47 -85 -282 1 -134 5 -202 14 -217 31 -55
-19 -53 1154 -53 840 0 1088 3 1107 13 13 6 33 24 44 38 18 25 19 44 19 221 0
210 -7 243 -55 270 -17 10 -252 13 -1103 13 -595 1 -1088 -1 -1095 -3z"/>
<path d="M510 5129 c-84 -16 -202 -83 -264 -150 -89 -96 -131 -194 -141 -328
-3 -49 0 -79 19 -168 5 -25 48 -113 71 -146 37 -54 125 -131 180 -158 84 -41
151 -57 241 -57 141 0 251 47 363 155 l76 73 1146 0 c948 0 1148 -2 1164 -14
17 -13 18 -42 19 -652 1 -497 4 -644 14 -661 24 -42 47 -47 261 -47 178 -1
207 1 233 16 15 10 32 28 37 41 5 13 9 308 9 656 0 519 3 636 14 647 11 11 99
14 465 14 l451 1 26 26 c15 14 29 36 32 48 3 11 4 113 2 226 -3 217 -4 220
-53 246 -14 8 -544 11 -1710 12 -929 0 -1785 1 -1901 1 l-211 0 -71 70 c-131
130 -298 183 -472 149z"/>
<path d="M1368 4198 c-35 -7 -77 -48 -79 -76 -1 -9 -2 -411 -3 -892 -3 -944
-4 -921 50 -957 27 -17 116 -18 2276 -19 l2248 -1 69 -69 c106 -107 209 -154
352 -160 146 -6 273 43 375 145 103 102 156 230 153 371 -4 191 -113 362 -282
445 -208 102 -427 62 -598 -107 l-69 -68 -1999 0 -1999 0 -11 28 c-7 18 -10
153 -10 405 1 373 1 377 22 392 18 13 108 15 648 15 619 0 627 0 653 21 45 35
48 49 46 256 -1 222 -7 247 -70 269 -30 10 -1724 12 -1772 2z"/>
<path d="M2124 2091 c-17 -11 -36 -33 -42 -49 -6 -18 -10 -145 -10 -318 -1
-159 -1 -333 -1 -387 l-1 -97 -61 -57 c-107 -101 -160 -216 -165 -362 -5 -150
40 -263 146 -371 201 -205 518 -206 718 -3 70 70 114 147 138 236 20 76 15
201 -12 277 -34 101 -52 129 -131 210 l-73 75 0 141 c0 118 3 144 16 155 13
11 273 13 1473 14 1393 0 1458 1 1485 18 46 31 52 59 51 269 -1 212 -5 226
-61 253 -28 13 -242 15 -1736 15 -1656 0 -1704 -1 -1734 -19z"/>
<path d="M3060 1427 c-14 -5 -34 -21 -45 -36 -18 -23 -20 -44 -23 -217 -3
-154 0 -199 12 -228 28 -67 13 -66 703 -66 662 0 647 -1 686 51 18 25 19 44
20 226 0 214 -5 237 -57 266 -26 14 -1257 18 -1296 4z"/>
</g>
</svg>
